<?xml version="1.0" encoding="UTF-8" standalone="no"?><!DOCTYPE svg PUBLIC "-//W3C//DTD SVG 1.1//EN" "http://www.w3.org/Graphics/SVG/1.1/DTD/svg11.dtd"><svg width="100%" height="100%" viewBox="0 0 516 1402" version="1.1" xmlns="http://www.w3.org/2000/svg" xmlns:xlink="http://www.w3.org/1999/xlink" xml:space="preserve" xmlns:serif="http://www.serif.com/" style="fill-rule:evenodd;clip-rule:evenodd;stroke-linejoin:round;stroke-miterlimit:2;"><path d="M213.443,1385.76c-39.875,-305.208 -28.917,-715.75 57.792,-1013c7,-24 -29.25,-34.542 -36.251,-10.583c-88.458,303.125 -99.374,719 -58.999,1028.46c1.375,10.417 40.667,19.833 37.458,-4.875Z" style="fill:#5a7c60;fill-rule:nonzero;"/><path d="M55.11,611.847c28.541,12.542 64.749,78.667 78.458,106.375c32.708,66.25 51.333,146.209 48.958,154.625c0.084,0.667 -0.167,-0.166 1.5,4.5c28.209,-90.375 69.625,-191.958 156.083,-231.5c52.709,-24.083 89.751,-0.333 92.542,38.959c3.709,52.291 -52.625,85.083 -87.833,113.208l-158.334,126.542c2.543,8.583 -11.291,15.333 -17.749,6.625c-37.5,-50.584 -152.875,-216.25 -167.626,-255.792c-6.499,-17.542 16.084,-80.208 54.001,-63.542Z" style="fill:#7aa881;fill-rule:nonzero;"/><path d="M46.86,432.931c45.125,84.333 135.041,153.541 141.291,254.916c0.667,10.959 14.875,12.417 18.542,2.5c11.208,-30.208 21.875,-60.583 32.25,-91.041c78.375,-134 309.959,-195.584 272.083,-325.584c-14.708,-50.416 -83.417,-79.5 -152.416,-39.25c146.291,-253 -240.209,-371.75 -222.875,11.75c-73.5,-55.791 -166.917,40.917 -88.875,186.709Z" style="fill:#7aa881;fill-rule:nonzero;"/><path d="M226.235,490.972c54.125,-61.666 118.166,-114.25 189.083,-155.5c10.542,-6.125 20.042,10.167 9.542,16.292c-69.667,40.5 -132.126,92 -185.292,152.583c-8,9.125 -21.334,-4.25 -13.333,-13.375Z" style="fill:#5a7c60;fill-rule:nonzero;"/><path d="M369.651,295.806c10.042,-3.917 18.25,13.041 5.042,18.208c-4.5,1.75 -10.75,5.125 -16.375,9.333c0.041,0 0.041,-0.041 0.083,-0.041c-8.791,7.083 -11.75,11.583 -12.624,12.458c-1.792,2.125 -4.626,6.792 -5.376,8.083c-2.458,4.292 -8.625,6.167 -12.916,3.375c-17.709,-11.416 20.458,-42.958 42.166,-51.416Z" style="fill:#5a7c60;fill-rule:nonzero;"/><path d="M205.193,383.556c14.5,-109.417 44.458,-215.959 89.542,-316.75c4.958,-11.084 21.208,-1.5 16.291,9.5c-46.208,103.375 -76.5,213.708 -89.5,326.166c-1.375,11.75 -19.333,12.417 -18.875,0c0.542,-14.75 0.042,-15.75 2.542,-18.916Z" style="fill:#5a7c60;fill-rule:nonzero;"/><path d="M236.402,101.722c13.666,8.792 -6.501,17.709 -12.001,60.625c-1.917,15.209 -20.083,9.459 -18.875,0c2.542,-20.125 14.209,-71.375 30.876,-60.625Z" style="fill:#5a7c60;fill-rule:nonzero;"/><path d="M108.651,295.764c7.375,59.333 27.875,116.5 59.292,167.292c6.417,10.375 -9.917,19.833 -16.292,9.541c-33.291,-53.833 -54.083,-114.083 -61.875,-176.833c-1.5,-12.042 17.375,-11.917 18.875,0Z" style="fill:#5a7c60;fill-rule:nonzero;"/></svg>