<?xml version="1.0" encoding="UTF-8" standalone="no"?><!DOCTYPE svg PUBLIC "-//W3C//DTD SVG 1.1//EN" "http://www.w3.org/Graphics/SVG/1.1/DTD/svg11.dtd"><svg width="100%" height="100%" viewBox="0 0 681 499" version="1.1" xmlns="http://www.w3.org/2000/svg" xmlns:xlink="http://www.w3.org/1999/xlink" xml:space="preserve" xmlns:serif="http://www.serif.com/" style="fill-rule:evenodd;clip-rule:evenodd;stroke-linejoin:round;stroke-miterlimit:2;"><path d="M5.436,493.844c-7.32,-7.416 -7.237,-19.375 0.188,-26.708c91.425,-90.125 206.517,-81.542 385.867,-228.583c19.312,-15.834 43.275,13.333 23.941,29.208c-182.046,149.292 -300.021,144.208 -383.291,226.292c-3.68,3.625 -19.38,7.208 -26.705,-0.209Z" style="fill:#5a7c60;fill-rule:nonzero;"/><path d="M646.982,0.053c-23.737,-1.75 -159.942,40.375 -237.15,83.791c-93.75,52.75 -175.037,141.667 -187.475,251.334c-48.325,154.958 283.833,132.25 418.146,-150.709c18.45,-38.875 39.354,-100.625 40.362,-139.791c0.563,-21.875 -9.899,-42.834 -33.883,-44.625Z" style="fill:#7aa881;fill-rule:nonzero;"/><path d="M546.828,113.886c-2.883,3.125 -3.042,6.708 -1.813,9.75c-22.97,26.5 -47.637,51.333 -73.695,74.583c0.366,-12.416 0.733,-24.833 1.1,-37.25c0.346,-11.75 -18.492,-13.083 -18.884,0c-0.529,18 -1.062,36 -1.591,53.959c-16.63,13.958 -33.746,27.291 -51.4,39.875c4.979,-16.5 8.137,-33.5 8.991,-50.917c0.25,-5.083 -4.516,-9.458 -9.437,-9.458c-16.967,-0 -2.271,22.875 -24.096,74.041c-0.546,1.25 -0.854,2.584 -0.979,3.917c-18.238,12 -36.888,23.417 -56.054,33.958c7.225,-23.333 12.833,-47.166 16.575,-71.333c0.779,-5 -1.279,-10.125 -6.592,-11.583c-16.942,-4.667 -7.471,16.458 -31.388,88.208c-0.654,1.958 -0.308,4 0.459,5.833c-12.646,6.5 -25.454,12.709 -38.446,18.542c-11.062,4.958 -1.471,21.25 9.529,16.292c68.188,-30.667 131.954,-70.5 189.492,-117.959c5.891,1.709 11.704,-1.958 11.95,-10.041c34.708,-29.709 67.033,-62.25 96.483,-97.334c9.967,-11.875 -9.479,-24.583 -20.204,-13.083Z" style="fill:#5a7c60;fill-rule:nonzero;"/><path d="M438.728,319.886c-41.829,22.917 -65.071,8.708 -64.337,25.083c0.22,4.917 4.158,9.709 9.437,9.459c22.608,-1.209 44.575,-7.375 64.429,-18.25c10.7,-5.834 1.617,-22.417 -9.529,-16.292Z" style="fill:#5a7c60;fill-rule:nonzero;"/><path d="M522.065,250.636c-2.337,1.417 -3.858,3.583 -4.408,6.208c-5.996,1.084 -10.354,8.084 -4.521,15.667c7.909,7.833 24.046,-0.208 23.425,-12.375c-0.029,-0.5 -6.291,-12.917 -14.496,-9.5Z" style="fill:#5a7c60;fill-rule:nonzero;"/></svg>