<?xml version="1.0" encoding="UTF-8" standalone="no"?><!DOCTYPE svg PUBLIC "-//W3C//DTD SVG 1.1//EN" "http://www.w3.org/Graphics/SVG/1.1/DTD/svg11.dtd"><svg width="100%" height="100%" viewBox="0 0 1213 1316" version="1.1" xmlns="http://www.w3.org/2000/svg" xmlns:xlink="http://www.w3.org/1999/xlink" xml:space="preserve" xmlns:serif="http://www.serif.com/" style="fill-rule:evenodd;clip-rule:evenodd;stroke-linejoin:round;stroke-miterlimit:2;"><path d="M519.892,1315.99c-10.337,0 -18.762,-8.333 -18.883,-18.666c0.725,-10.001 -5.704,-51.751 22.783,-222.459c56.325,-337.658 8.625,-438.258 5.854,-748.771c-0.22,-24.841 37.542,-25.6 37.763,-0.329c2.767,309.6 50.837,412.288 -6.367,755.308c-11.471,68.75 -22.304,133.667 -22.304,208.625c-0.296,0.959 3.588,26.042 -18.633,26.292l-0.213,0Z" style="fill:#e1eedd;fill-rule:nonzero;"/><path d="M541.505,1038.19c117.333,-106.042 221.387,-184.375 347.871,-222.209c11.875,-3.625 17.429,14.5 5.4,18.084c-123.075,36.837 -225.18,113.837 -340.613,218.124c-9.225,8.376 -21.937,-5.624 -12.658,-13.999Z" style="fill:#e1eedd;fill-rule:nonzero;"/><path d="M515.455,1236.65c-101.792,-99.042 -95.596,-267 -197.971,-374.708c-8.613,-9.042 5.083,-22.042 13.683,-13.001c105.909,111.417 100.038,279.417 197.454,374.167c8.95,8.708 -4.204,22.25 -13.166,13.542Z" style="fill:#e1eedd;fill-rule:nonzero;"/><path d="M561.021,657.189c-20.966,-9.75 21.655,-27.041 63.875,-221.312c10.45,-48.121 18,-82.896 45.363,-113.821c8.275,-9.342 22.433,3.154 14.146,12.512c-49.579,56.03 -26.938,137.609 -110.834,318.042c-2.208,4.734 -7.829,6.767 -12.55,4.579Z" style="fill:#e1eedd;fill-rule:nonzero;"/><path d="M828.692,18.556c-163.125,107.483 -177.708,343.441 -196.183,387.833c-3.7,8.896 9.733,15.742 15.783,9.188c99.346,-107.587 167.35,-242.375 194.271,-386.358c1.396,-7.467 -6.437,-15.559 -13.871,-10.663Z" style="fill:#e1eedd;fill-rule:nonzero;"/><path d="M567.059,367.139c49.637,-112.479 63.887,-238.625 39.908,-359.529c-1.975,-9.937 -15.287,-7.95 -18.212,0c-23.146,62.921 -38.829,128.346 -46.988,194.717c-15.771,-70.113 -43.925,-137.396 -83.471,-197.808c-5.325,-8.134 -16.795,-4.526 -17.595,4.766c-9.671,112.467 29.179,219.721 72.75,321.896c-66.05,-102.871 -166.538,-182.075 -282.496,-221.883c-8.671,-2.979 -13.617,7.046 -10.663,13.866c50.246,116.025 169.6,165.909 269.513,233.608c17.891,21.813 35.779,43.63 53.671,65.442c4.383,5.346 14.495,2.483 15.779,-4.166c1.075,-5.563 1.921,-11.167 2.862,-16.75c2.742,-2.7 3.825,-6.721 1.767,-10.334c1.221,-7.921 2.221,-15.866 3.175,-23.825Z" style="fill:#e1eedd;fill-rule:nonzero;"/><path d="M1203.5,648.343c-153.224,4.492 -279.624,99.642 -390.72,195.934c-1.609,0.75 -3.188,1.583 -4.796,2.333c-9.696,4.5 -2.842,20.5 7.275,17.25c140.671,-45.5 286.562,-94 394.917,-199.4c5.758,-5.608 1.52,-16.358 -6.676,-16.117Z" style="fill:#e1eedd;fill-rule:nonzero;"/><path d="M1136.7,852.36c-148.242,-53.167 -268.884,23.084 -399.375,38.459c158.45,-201.613 245.737,-304.713 302.321,-430.2c3.945,-8.759 -4.059,-17.055 -12.917,-12.922c-269.417,125.701 -313.171,448.751 -315.729,454.246c-3.459,5.709 1.596,16 10.7,14.713c138.721,-19.421 287.496,21.038 417.254,-47.046c7.716,-4.041 4.908,-14.708 -2.254,-17.25Z" style="fill:#e1eedd;fill-rule:nonzero;"/><path d="M392.713,508.397c-1.187,-8.953 -12.125,-13.266 -17.592,-4.766c-35.879,55.754 -40.654,129.879 -29.804,336.396c-38.075,-109.359 -82.596,-218.054 -161.562,-304.521c-5.521,-6.05 -16.288,-1.325 -16.117,6.675c2.713,127.746 59.904,250.387 153.775,335.975c-99.104,-40.879 -211.729,-24.837 -314.658,-2.583c-9.025,1.954 -8.988,16.246 -0,18.208c94.95,20.996 286.816,42.708 346.254,20.496c3.104,0.379 5.792,-1.083 7.692,-3.288c1.27,-0.629 1.537,-0.379 3.591,-2.379c5.321,-2.871 4.113,-6.454 2.746,-25.083c33.375,-121.875 42.288,-249.796 25.675,-375.13Z" style="fill:#e1eedd;fill-rule:nonzero;"/></svg>