<?xml version="1.0" encoding="UTF-8" standalone="no"?><!DOCTYPE svg PUBLIC "-//W3C//DTD SVG 1.1//EN" "http://www.w3.org/Graphics/SVG/1.1/DTD/svg11.dtd"><svg width="100%" height="100%" viewBox="0 0 5055 5484" version="1.1" xmlns="http://www.w3.org/2000/svg" xmlns:xlink="http://www.w3.org/1999/xlink" xml:space="preserve" xmlns:serif="http://www.serif.com/" style="fill-rule:evenodd;clip-rule:evenodd;stroke-linejoin:round;stroke-miterlimit:2;"><path d="M2887.25,-0c43.07,-0 78.175,34.72 78.679,77.775c-3.021,41.67 23.766,215.629 -94.929,926.912c-234.688,1406.91 -35.938,1826.08 -24.392,3119.88c0.917,103.504 -156.425,106.667 -157.346,1.371c-11.529,-1290 -211.821,-1717.87 26.529,-3147.12c47.796,-286.458 92.934,-556.945 92.934,-869.27c1.233,-3.996 -14.95,-108.509 77.637,-109.55l0.888,-0Z" style="fill:#e1eedd;fill-rule:nonzero;"/><path d="M2797.19,1157.5c-488.887,441.841 -922.445,768.229 -1449.46,925.87c-49.479,15.105 -72.621,-60.416 -22.5,-75.35c512.812,-153.487 938.25,-474.32 1419.22,-908.85c38.437,-34.9 91.404,23.434 52.741,58.33Z" style="fill:#e1eedd;fill-rule:nonzero;"/><path d="M2905.73,330.583c424.133,412.675 398.317,1112.5 824.879,1561.28c35.888,37.675 -21.179,91.842 -57.012,54.171c-441.288,-464.237 -416.825,-1164.24 -822.725,-1559.03c-37.292,-36.283 17.516,-92.708 54.858,-56.425Z" style="fill:#e1eedd;fill-rule:nonzero;"/><path d="M2715.88,2745c87.358,40.625 -90.229,112.671 -266.146,922.133c-43.542,200.504 -75,345.4 -189.013,474.254c-34.479,38.925 -93.47,-13.141 -58.941,-52.133c206.579,-233.458 112.241,-573.371 461.808,-1325.17c9.2,-19.725 32.621,-28.196 52.292,-19.079Z" style="fill:#e1eedd;fill-rule:nonzero;"/><path d="M1600.58,5405.98c679.687,-447.846 740.45,-1431.01 817.429,-1615.97c15.417,-37.067 -40.554,-65.592 -65.762,-38.284c-413.942,448.28 -697.292,1009.9 -809.463,1609.83c-5.817,31.113 26.821,64.83 57.796,44.43Z" style="fill:#e1eedd;fill-rule:nonzero;"/><path d="M2690.72,3953.55c-206.82,468.663 -266.195,994.271 -166.283,1498.04c8.229,41.404 63.696,33.125 75.883,-0c96.442,-262.171 161.788,-534.775 195.784,-811.321c65.712,292.138 183.021,572.483 347.796,824.2c22.187,33.892 69.979,18.858 73.312,-19.858c40.296,-468.613 -121.579,-915.504 -303.125,-1341.23c275.208,428.63 693.908,758.646 1177.07,924.513c36.129,12.412 56.737,-29.358 44.429,-57.775c-209.358,-483.438 -706.667,-691.288 -1122.97,-973.367c-74.546,-90.887 -149.079,-181.791 -223.629,-272.675c-18.263,-22.275 -60.396,-10.346 -65.746,17.359c-4.479,23.179 -8.004,46.529 -11.925,69.791c-11.425,11.25 -15.937,28.004 -7.362,43.059c-5.088,33.004 -9.255,66.108 -13.23,99.27Z" style="fill:#e1eedd;fill-rule:nonzero;"/><path d="M38.879,2781.86c638.433,-18.717 1165.1,-415.175 1628,-816.392c6.704,-3.125 13.283,-6.595 19.983,-9.72c40.4,-18.75 11.842,-85.417 -30.312,-71.875c-586.129,189.583 -1194.01,391.666 -1645.49,830.833c-23.991,23.367 -6.333,68.158 27.817,67.154Z" style="fill:#e1eedd;fill-rule:nonzero;"/><path d="M317.212,1931.79c617.675,221.529 1120.35,-96.183 1664.06,-160.246c-660.209,840.055 -1023.9,1269.64 -1259.67,1792.5c-16.438,36.496 16.912,71.063 53.821,53.842c1122.57,-523.754 1304.88,-1869.8 1315.54,-1892.69c14.413,-23.787 -6.65,-66.666 -44.583,-61.304c-578.004,80.921 -1197.9,-87.658 -1738.56,196.025c-32.15,16.838 -20.45,61.284 9.391,71.875Z" style="fill:#e1eedd;fill-rule:nonzero;"/><path d="M3417.16,3364.97c4.946,37.305 50.521,55.275 73.3,19.859c149.496,-232.309 169.392,-541.163 124.183,-1401.65c158.646,455.662 344.15,908.558 673.175,1268.84c23.005,25.209 67.867,5.521 67.155,-27.812c-11.305,-532.275 -249.6,-1043.28 -640.73,-1399.9c412.934,170.329 882.205,103.487 1311.08,10.762c37.605,-8.141 37.45,-67.691 0,-75.866c-395.625,-87.484 -1195.07,-177.95 -1442.73,-85.4c-12.933,-1.579 -24.133,4.512 -32.05,13.7c-5.291,2.621 -6.404,1.579 -14.962,9.912c-22.171,11.963 -17.138,26.892 -11.442,104.513c-139.062,507.812 -176.2,1040.82 -106.979,1563.04Z" style="fill:#e1eedd;fill-rule:nonzero;"/></svg>