<?xml version="1.0" encoding="UTF-8" standalone="no"?><!DOCTYPE svg PUBLIC "-//W3C//DTD SVG 1.1//EN" "http://www.w3.org/Graphics/SVG/1.1/DTD/svg11.dtd"><svg width="100%" height="100%" viewBox="0 0 5525 2672" version="1.1" xmlns="http://www.w3.org/2000/svg" xmlns:xlink="http://www.w3.org/1999/xlink" xml:space="preserve" xmlns:serif="http://www.serif.com/" style="fill-rule:evenodd;clip-rule:evenodd;stroke-linejoin:round;stroke-miterlimit:2;"><path d="M48.645,2516.28c1266,-205.516 2891.64,-739.535 3974.66,-1440.91c87.451,-56.634 172.866,75.573 85.578,132.084c-1104.49,715.229 -2751.47,1255.74 -4035.02,1464.18c-43.033,6.986 -127.706,-138.67 -25.22,-155.353l0.004,-0.001Z" style="fill:#5a7c60;fill-rule:nonzero;"/><path d="M3327.11,2223.79c-84.166,-98.966 -391.431,-164.506 -518.354,-186.055c-303.504,-51.535 -644.984,-30.254 -675.768,-10.734c-2.787,0.438 0.957,0.405 -19.8,-0.69c327.145,-220.513 683.163,-507.261 737.68,-899.625c33.207,-239.035 -105.95,-358.638 -265.977,-322.816c-213.163,47.735 -276.749,311.758 -346.992,485.781l-316.084,783.259c-37.208,0.045 -47.659,63.41 -5.246,78.752c246.836,89.301 1045.87,352.021 1221.4,363.517c77.871,5.092 300.944,-159.886 189.14,-291.389Z" style="fill:#7aa881;fill-rule:nonzero;"/><path d="M4690.29,1465.21c1551.54,-389.051 615.819,-1789.97 -219.357,-903.854c78.155,-323.379 -119.915,-562.914 -338.793,-561.349c-564.202,4.011 -533.406,1001.97 -974.606,1474.94c-109.223,77.867 -217.792,156.638 -324.879,237.472c-35.218,26.558 -12.366,81.426 32.17,71.033c412.019,-96.16 795.831,180.049 1186.23,259.494c675.22,137.387 949.657,-350.981 639.239,-577.735Z" style="fill:#7aa881;fill-rule:nonzero;"/><path d="M3605.13,1396.3c181.538,-289.771 314.979,-608.127 394.891,-940.587c11.86,-49.325 -64.622,-67.828 -76.465,-18.56c-78.478,326.411 -209.436,637.322 -387.664,921.806c-26.933,42.98 42.443,80.115 69.238,37.341Z" style="fill:#5a7c60;fill-rule:nonzero;"/><path d="M4081.85,733.684c-1.103,1.344 -1.744,2.279 -1.703,2.302c0.598,-0.792 1.212,-1.576 1.703,-2.302Z" style="fill:#5a7c60;fill-rule:nonzero;"/><path d="M4212.89,590.591c3.61,-44.734 -73.914,-57.271 -78.673,1.729c-1.626,20.001 -7.715,49.007 -17.745,76.473c0.054,-0.125 0.097,-0.229 0.168,-0.338c-17.928,43.509 -32.353,60.764 -34.788,65.229c-6.248,9.642 -21.577,26.534 -25.828,31.05c-14.103,15.003 -14.209,41.839 1.911,55.608c66.775,57.089 147.146,-132.926 154.955,-229.751Z" style="fill:#5a7c60;fill-rule:nonzero;"/><path d="M4116.47,668.793c-1.122,2.006 -1.591,3.52 -1.362,3.252c0.243,-0.508 -0.261,0.713 1.362,-3.252Z" style="fill:#5a7c60;fill-rule:nonzero;"/><path d="M4133.77,597.307c-0.042,0.339 -0.071,0.605 -0.103,0.992c0.157,-1.351 0.097,-0.898 0.103,-0.992Z" style="fill:#5a7c60;fill-rule:nonzero;"/><path d="M4059.14,1351.93c419.323,-188.554 808.793,-435.387 1157.45,-735.772c38.27,-33.016 -19.461,-86.523 -57.519,-53.714c-357.371,307.903 -761.585,560.636 -1194.95,746.903c-45.265,19.453 -26.513,92.04 22.557,75.377c58.09,-19.703 62.758,-18.943 72.461,-32.794Z" style="fill:#5a7c60;fill-rule:nonzero;"/><path d="M5146.85,890.608c-51.408,-43.948 -62.875,47.195 -227.65,120.428c-58.389,25.794 -13.845,91.437 22.553,75.36c77.272,-34.142 267.887,-142.09 205.097,-195.788Z" style="fill:#5a7c60;fill-rule:nonzero;"/><path d="M4524.84,1632.5c-245.657,41.481 -498.278,27.796 -738.615,-36.954c-49.027,-13.219 -67.406,63.3 -18.556,76.481c254.621,68.574 519.924,79.716 779.73,35.853c49.802,-8.419 26.795,-83.713 -22.559,-75.38Z" style="fill:#5a7c60;fill-rule:nonzero;"/></svg>